HIERARCHY
ROOT Hips
{
	OFFSET 44.178501 -5.202806 98.600098
	CHANNELS 6 Xposition Yposition Zposition Xrotation Yrotation Zrotation
	JOINT spine
	{
		OFFSET 0.000000 -0.477353 8.301041
		CHANNELS 3 Xrotation Yrotation Zrotation
		JOINT spine1
		{
			OFFSET 0.000000 -0.000001 10.456497
			CHANNELS 3 Xrotation Yrotation Zrotation
			JOINT spine2
			{
				OFFSET 0.000000 -0.000002 10.019203
				CHANNELS 3 Xrotation Yrotation Zrotation
				JOINT Neck
				{
					OFFSET 0.000000 -1.226414 25.723503
					CHANNELS 3 Xrotation Yrotation Zrotation
					JOINT Head
					{
						OFFSET 0.000000 -0.000001 7.771744
						CHANNELS 3 Xrotation Yrotation Zrotation
						End Site
						{
							OFFSET 0.000000 6.203937 18.811996
						}
					}
				}
				JOINT RightShoulder
				{
					OFFSET -4.218800 0.587438 10.820000
					CHANNELS 3 Xrotation Yrotation Zrotation
					JOINT RightArm
					{
						OFFSET 0.000000 -0.000002 14.191406
						CHANNELS 3 Xrotation Yrotation Zrotation
						JOINT RightArmRoll
						{
							OFFSET 0.000000 -0.000001 7.164078
							CHANNELS 3 Xrotation Yrotation Zrotation
							JOINT RightForeArm
							{
								OFFSET 0.000000 -0.000003 20.866501
								CHANNELS 3 Xrotation Yrotation Zrotation
								JOINT RightForeArmRoll
								{
									OFFSET 0.000000 -0.000001 8.039215
									CHANNELS 3 Xrotation Yrotation Zrotation
									JOINT RightHand
									{
										OFFSET 0.000000 -0.000003 16.132996
										CHANNELS 3 Xrotation Yrotation Zrotation
										End Site
										{
											OFFSET 0.000000 0.000000 0.100006
										}
									}
								}
							}
						}
					}
				}
				JOINT LeftShoulder
				{
					OFFSET 4.218800 0.587438 10.820000
					CHANNELS 3 Xrotation Yrotation Zrotation
					JOINT LeftArm
					{
						OFFSET 0.000000 -0.000002 14.191406
						CHANNELS 3 Xrotation Yrotation Zrotation
						JOINT LeftArmRoll
						{
							OFFSET 0.000000 -0.000001 7.164078
							CHANNELS 3 Xrotation Yrotation Zrotation
							JOINT LeftForeArm
							{
								OFFSET 0.000000 -0.000003 20.866501
								CHANNELS 3 Xrotation Yrotation Zrotation
								JOINT LeftForeArmRoll
								{
									OFFSET 0.000000 -0.000001 8.039215
									CHANNELS 3 Xrotation Yrotation Zrotation
									JOINT LeftHand
									{
										OFFSET 0.000000 -0.000003 16.132996
										CHANNELS 3 Xrotation Yrotation Zrotation
										End Site
										{
											OFFSET 0.000000 0.000000 0.100006
										}
									}
								}
							}
						}
					}
				}
			}
		}
	}
	JOINT RightUpLeg
	{
		OFFSET -7.357731 1.131821 -1.349213
		CHANNELS 3 Xrotation Yrotation Zrotation
		JOINT RightUpLegRoll
		{
			OFFSET 0.000000 -0.000003 18.916801
			CHANNELS 3 Xrotation Yrotation Zrotation
			JOINT RightLeg
			{
				OFFSET 0.000000 0.000004 -23.425598
				CHANNELS 3 Xrotation Yrotation Zrotation
				JOINT RightLegRoll
				{
					OFFSET 0.000000 -0.000004 23.502296
					CHANNELS 3 Xrotation Yrotation Zrotation
					JOINT RightFoot
					{
						OFFSET 0.000000 -0.000003 19.561707
						CHANNELS 3 Xrotation Yrotation Zrotation
						JOINT RightToeBase
						{
							OFFSET 0.000000 -0.000003 16.352600
							CHANNELS 3 Xrotation Yrotation Zrotation
							End Site
							{
								OFFSET 0.006931 0.912836 7.919434
							}
						}
					}
				}
			}
		}
	}
	JOINT LeftUpLeg
	{
		OFFSET 7.357731 1.131821 -1.349213
		CHANNELS 3 Xrotation Yrotation Zrotation
		JOINT LeftUpLegRoll
		{
			OFFSET 0.000000 -0.000003 18.916901
			CHANNELS 3 Xrotation Yrotation Zrotation
			JOINT LeftLeg
			{
				OFFSET 0.000000 -0.000004 23.425507
				CHANNELS 3 Xrotation Yrotation Zrotation
				JOINT LeftLegRoll
				{
					OFFSET 0.000000 -0.000004 23.719498
					CHANNELS 3 Xrotation Yrotation Zrotation
					JOINT LeftFoot
					{
						OFFSET 0.000000 -0.000003 19.344406
						CHANNELS 3 Xrotation Yrotation Zrotation
						JOINT LeftToeBase
						{
							OFFSET 0.000000 -0.000003 16.352600
							CHANNELS 3 Xrotation Yrotation Zrotation
							End Site
							{
								OFFSET -0.031063 0.912836 7.919434
							}
						}
					}
				}
			}
		}
	}
}
MOTION
Frames: 5
Frame Time: 0.041667
45.815899 -9.625284 99.087105 -3.113270 -0.647980 3.570097 -0.729969 -0.301094 0.264844 2.551305 -0.589620 0.546162 4.196386 -0.583244 0.553281 19.907447 7.165061 2.735419 -6.702719 -3.374085 2.998737 2.459513 -56.006629 3.264308 132.870525 -31.771014 91.460755 -0.000011 -0.000008 -0.000008 80.908433 -15.614063 6.895398 0.000006 0.000002 -3.008960 -4.999636 -7.998737 -0.000077 -8.039503 63.207773 9.792492 95.505511 59.272033 -83.563567 0.000004 -0.000004 -0.000002 54.424850 11.951266 -4.810410 0.000017 -0.000004 3.000012 -4.999622 7.998698 0.000015 -0.251909 -173.749057 1.826290 -179.999991 0.000004 -1.201999 171.980379 -2.728105 -0.808211 -0.000008 -0.000000 0.093890 68.274557 6.951067 2.018856 25.456895 -7.362886 -0.000008 0.756030 173.159584 -0.861246 -0.000005 -0.000005 -1.202581 -6.950561 3.923584 0.858012 -0.000003 -0.000001 -0.086063 68.433298 -6.956944 -2.014287 25.456962 7.355614 -0.000010 
45.798302 -9.626150 99.086014 -3.116676 -0.647112 3.648655 -0.730774 -0.301553 0.266626 2.549196 -0.591506 0.548467 4.194279 -0.585087 0.555603 20.097876 7.053395 2.858824 -6.925156 -3.207031 3.115474 2.461020 -56.172756 3.242516 132.715958 -32.065460 91.549363 -0.000013 -0.000010 -0.000012 80.806800 -15.583562 6.881475 0.000007 0.000002 -3.008959 -4.999634 -7.998737 -0.000074 -8.038593 63.185499 9.789895 95.583764 59.290666 -83.710252 0.000002 -0.000007 -0.000002 54.465687 11.911984 -4.784628 0.000015 -0.000005 3.000011 -4.999620 7.998697 0.000017 -0.256563 -173.765053 1.820325 -179.999991 0.000005 -1.201999 171.936379 -2.726807 -0.810164 -0.000008 -0.000000 0.094275 68.282036 6.951076 2.018986 25.456897 -7.362884 -0.000008 0.758984 173.133602 -0.872203 -0.000005 -0.000005 -1.202590 -6.919332 3.920447 0.856288 -0.000003 -0.000001 -0.086059 68.420648 -6.956928 -2.014380 25.456957 7.355613 -0.000010 
45.765701 -9.641540 99.086914 -3.119627 -0.646135 3.727105 -0.731668 -0.301961 0.268456 2.546896 -0.593322 0.550823 4.191980 -0.586859 0.557972 20.289512 6.942029 2.982728 -7.150228 -3.040693 3.233368 2.462631 -56.338276 3.220846 132.565420 -32.360733 91.639979 -0.000005 -0.000010 -0.000013 80.708425 -15.552069 6.867034 0.000007 0.000002 -3.008959 -4.999633 -7.998735 -0.000077 -8.036569 63.164080 9.786047 95.658186 59.309067 -83.853379 0.000000 -0.000005 -0.000002 54.506556 11.872747 -4.758608 0.000014 -0.000003 3.000009 -4.999622 7.998696 0.000017 -0.261535 -173.782074 1.814072 -179.999991 0.000005 -1.201999 171.892775 -2.724539 -0.811958 -0.000008 -0.000000 0.094641 68.289720 6.951101 2.019107 25.456894 -7.362884 -0.000009 0.761777 173.107606 -0.883188 -0.000005 -0.000004 -1.202610 -6.887491 3.917387 0.854561 -0.000003 -0.000001 -0.086056 68.407807 -6.956969 -2.014297 25.456959 7.355613 -0.000010 
45.740894 -9.654066 99.088020 -3.122267 -0.645082 3.805472 -0.732626 -0.302332 0.270322 2.544457 -0.595090 0.553214 4.189541 -0.588582 0.560378 20.482054 6.831136 3.107227 -7.377115 -2.875153 3.352481 2.464329 -56.503512 3.199286 132.418202 -32.656541 91.732302 -0.000008 -0.000009 -0.000012 80.612317 -15.519962 6.852206 0.000007 0.000002 -3.008956 -4.999633 -7.998738 -0.000071 -8.033739 63.143221 9.781306 95.730005 59.327365 -83.993951 0.000002 -0.000007 -0.000000 54.547455 11.833617 -4.732514 0.000017 -0.000004 3.000014 -4.999619 7.998696 0.000015 -0.266728 -173.798070 1.807634 -179.999991 0.000005 -1.202996 171.849390 -2.722270 -0.813737 -0.000008 -0.000000 0.094994 68.297623 6.951101 2.019209 25.456894 -7.362884 -0.000008 0.764455 173.081611 -0.894192 -0.000005 -0.000004 -1.202630 -6.855210 3.914374 0.852832 -0.000003 -0.000001 -0.086054 68.394844 -6.956958 -2.014311 25.456957 7.355613 -0.000010 
45.734604 -9.661938 99.087212 -3.124718 -0.643989 3.883805 -0.733621 -0.302682 0.272205 2.541948 -0.596829 0.555625 4.187022 -0.590276 0.562803 20.675111 6.720932 3.232394 -7.605005 -2.710514 3.472879 2.466105 -56.668533 3.177795 132.273703 -32.952630 91.826539 -0.000007 -0.000008 -0.000007 80.517460 -15.487514 6.837232 0.000008 0.000002 -3.008961 -4.999633 -7.998739 -0.000077 -8.030475 63.122682 9.776075 95.800513 59.345499 -84.133300 0.000002 -0.000007 -0.000001 54.588364 11.794475 -4.706303 0.000018 -0.000004 3.000011 -4.999622 7.998698 0.000018 -0.272050 -173.815064 1.801079 -179.999991 0.000005 -1.202996 171.806169 -2.720975 -0.815646 -0.000008 -0.000000 0.095339 68.305723 6.951077 2.019394 25.456895 -7.362884 -0.000008 0.767067 173.055615 -0.905209 -0.000005 -0.000005 -1.202650 -6.822678 3.911392 0.851102 -0.000003 -0.000001 -0.086052 68.381887 -6.956946 -2.014324 25.456959 7.355614 -0.000010 
